# xmcd CD database file
# Copyright (C) 1997 Ti Kan
#
# Track frame offsets:
#  150
#  11803
#  22673
#  36305
#  49075
#  61450
#  74495
#  87988
#  100368
#  112673
#  125203
#  136975
#
# Disc length: 1996 seconds
#
# Revision: 1
# Processed by: cddbd v1.5.1PL0 Copyright (c) Steve Scherf et al.
# Submitted via: CDWizzard Release:4.35
#
DISCID=a407ca0c
DTITLE=Ray Price - Greatest hits
DYEAR=1900
DGENRE=
TTITLE0=Crazy arms
TTITLE1=You done me wrong
TTITLE2=City lights
TTITLE3=Invitation to the blues
TTITLE4=I've got a new heartache
TTITLE5=Who'll be the first
TTITLE6=Heartaches by the number
TTITLE7=The same old me
TTITLE8=Release me
TTITLE9=One more time
TTITLE10=My shoes keep walking back to you
TTITLE11=I'll be there(when you get lonely)
EXTD=
EXTT0=
EXTT1=
EXTT2=
EXTT3=
EXTT4=
EXTT5=
EXTT6=
EXTT7=
EXTT8=
EXTT9=
EXTT10=
EXTT11=
PLAYORDER=
